<svg id="Layer_1" data-name="Layer 1" xmlns="http://www.w3.org/2000/svg" viewBox="0 0 497.32 128.92"><defs><style>.cls-1,.cls-2{fill:#2d3088;}.cls-2{font-size:23.83px;font-family:Exo-SemiBold, Exo;font-weight:600;}.cls-3{letter-spacing:-0.02em;}.cls-4{letter-spacing:-0.01em;}.cls-5{letter-spacing:-0.01em;}.cls-6{letter-spacing:-0.01em;}</style></defs><path class="cls-1" d="M172.68,34.8V47.59H48.24v52.84h97.52V82.82H77.55V65.2h95.13v42.28a11.7,11.7,0,0,1-11.7,11.7H31.75q-3.37,0-7.61-3-4.08-3-4.08-11.14V42.79a14.25,14.25,0,0,1,3.52-9.86q3.53-4.23,10.57-4.23H166.58A6.1,6.1,0,0,1,172.68,34.8Z" transform="translate(-20.06 -28.7)"/><path class="cls-1" d="M185.73,28.7h20.75a7.43,7.43,0,0,1,7.43,7.43v83.05H193.15a7.43,7.43,0,0,1-7.42-7.43Z" transform="translate(-20.06 -28.7)"/><path class="cls-1" d="M354.68,47.59H309.39v71.59H281.2V47.59H226V38.51a9.81,9.81,0,0,1,9.8-9.81H364.49v9.08A9.81,9.81,0,0,1,354.68,47.59Z" transform="translate(-20.06 -28.7)"/><text class="cls-2" transform="translate(0 122.48)">GE<tspan class="cls-3" x="29.9" y="0">OM</tspan><tspan x="66.14" y="0">ETRY IN</tspan><tspan class="cls-4" x="152.8" y="0">T</tspan><tspan x="166.36" y="0">ELLIGENT TU</tspan><tspan class="cls-5" x="308.77" y="0">T</tspan><tspan x="322.45" y="0">ORING SYS</tspan><tspan class="cls-6" x="441.34" y="0">T</tspan><tspan x="454.9" y="0">EM</tspan></text><path class="cls-1" d="M517.35,75.9V64H405.76V47.48H517.35V37.28a8.53,8.53,0,0,0-8.53-8.54H391.67q-7.05,0-10.57,4.09a14.46,14.46,0,0,0-3.53,10v40H490.31v17.61H377.57v10.21a8.55,8.55,0,0,0,8.54,8.54H503.28q7.05,0,10.57-3.53,3.52-3.8,3.52-10.57V75.9Z" transform="translate(-20.06 -28.7)"/></svg>